HIERARCHY
ROOT RootJoint
{
    OFFSET   0.000000   0.000000   0.000000
    CHANNELS 6 Xposition Yposition Zposition Xrotation Yrotation Zrotation
    JOINT pelvis_lowerback
    {
        OFFSET   0.000000   0.093605   0.000000
        CHANNELS 3 Xrotation Yrotation Zrotation
        JOINT lowerback_torso
        {
            OFFSET   0.000000   0.100000   0.000000
            CHANNELS 3 Xrotation Yrotation Zrotation
            JOINT torso_head
            {
                OFFSET   0.000000   0.282350   0.000000
                CHANNELS 3 Xrotation Yrotation Zrotation
                End Site
                {
                    OFFSET   0.000000   0.192650   0.000000
                }
            }
            JOINT rTorso_Clavicle
            {
                OFFSET  -0.001000   0.157500   0.000000
                CHANNELS 3 Xrotation Yrotation Zrotation
                JOINT rShoulder
                {
                    OFFSET  -0.117647   0.000000   0.000000
                    CHANNELS 3 Xrotation Yrotation Zrotation
                    JOINT rElbow
                    {
                        OFFSET  -0.245000   0.000000   0.000000
                        CHANNELS 3 Xrotation Yrotation Zrotation
                        JOINT rWrist
                        {
                            OFFSET  -0.240000   0.000000   0.000000
                            CHANNELS 3 Xrotation Yrotation Zrotation
                            End Site
                            {
                                OFFSET  -0.116353  -0.002500   0.000000
                            }
                        }
                    }
                }
            }
            JOINT lTorso_Clavicle
            {
                OFFSET   0.001000   0.157500   0.000000
                CHANNELS 3 Xrotation Yrotation Zrotation
                JOINT lShoulder
                {
                    OFFSET   0.117647   0.000000   0.000000
                    CHANNELS 3 Xrotation Yrotation Zrotation
                    JOINT lElbow
                    {
                        OFFSET   0.245000   0.000000   0.000000
                        CHANNELS 3 Xrotation Yrotation Zrotation
                        JOINT lWrist
                        {
                            OFFSET   0.240000   0.000000   0.000000
                            CHANNELS 3 Xrotation Yrotation Zrotation
                            End Site
                            {
                                OFFSET   0.116353  -0.002500   0.000000
                            }
                        }
                    }
                }
            }
        }
    }
    JOINT rHip
    {
        OFFSET  -0.100000  -0.051395   0.000000
        CHANNELS 3 Xrotation Yrotation Zrotation
        JOINT rKnee
        {
            OFFSET   0.000000  -0.410000   0.000000
            CHANNELS 3 Xrotation Yrotation Zrotation
            JOINT rAnkle
            {
                OFFSET   0.000000  -0.390000   0.000000
                CHANNELS 3 Xrotation Yrotation Zrotation
                JOINT rToeJoint
                {
                    OFFSET   0.000000  -0.050000   0.130000
                    CHANNELS 3 Xrotation Yrotation Zrotation
                    End Site
                    {
                        OFFSET  -0.010000   0.002000   0.060000
                    }
                }
            }
        }
    }
    JOINT lHip
    {
        OFFSET   0.100000  -0.051395   0.000000
        CHANNELS 3 Xrotation Yrotation Zrotation
        JOINT lKnee
        {
            OFFSET   0.000000  -0.410000   0.000000
            CHANNELS 3 Xrotation Yrotation Zrotation
            JOINT lAnkle
            {
                OFFSET   0.000000  -0.390000   0.000000
                CHANNELS 3 Xrotation Yrotation Zrotation
                JOINT lToeJoint
                {
                    OFFSET   0.000000  -0.050000   0.130000
                    CHANNELS 3 Xrotation Yrotation Zrotation
                    End Site
                    {
                        OFFSET   0.010000   0.002000   0.060000
                    }
                }
            }
        }
    }
}
MOTION
Frames: 17
Frame Time:   0.008333
 -2.393174   0.915319   4.079815  -2.856492  -7.288568   0.159108   7.186961  -0.596545  -1.532614   7.064551  -2.450613   1.948560  -0.493894  -1.112475   0.394807   2.197945   4.412376   9.993951  14.854803  16.267704  44.158548   0.000006  22.435907   0.000026  14.647947   3.623334   6.092615   2.153905  -4.811898  -8.558858  15.760179 -18.318641 -44.290052   0.000119 -23.637459   0.000170   9.816093  -2.850516  -6.201900   8.347754   0.241939  -2.149733   5.084167  -0.000142   0.000040 -11.993830  -0.138399   0.611804   0.858688   0.000033   0.000203   9.082073  -1.316010   3.340144  10.812494  -0.000705   0.000008  -9.156810   2.434064  -0.203652 -12.295641   0.000605  -0.000066
 -2.394115   0.915055   4.081228  -2.873819  -7.238159   0.099628   7.382960  -0.606434  -1.537359   7.058797  -2.510027   2.009889  -0.569135  -1.156876   0.407650   2.171220   4.385724   9.938665  14.891699  16.240685  44.232513  -0.000058  22.361703   0.000044  14.574314   3.666460   6.059900   2.074496  -4.819564  -8.581281  15.736628 -18.262571 -44.286250   0.000114 -23.669628   0.000145   9.801170  -2.867452  -6.161302   8.437045   0.288650  -2.014481   5.200527  -0.000178   0.000131 -12.279684  -0.071315   0.493991   0.845276   0.000022   0.000145   8.532912  -1.293839   3.442757  12.154001  -0.000926   0.001250  -9.509048   2.400182  -0.248340 -12.916343   0.000679  -0.000369
 -2.395089   0.914736   4.082773  -2.937737  -7.241963   0.024957   7.592030  -0.579569  -1.544795   7.090377  -2.546416   2.065925  -0.632493  -1.196233   0.420536   2.155286   4.357797   9.886513  14.934041  16.209663  44.301997  -0.000112  22.286103   0.000066  14.508184   3.676488   6.050341   2.003264  -4.819446  -8.604862  15.717292 -18.205110 -44.280093   0.000110 -23.697291   0.000123   9.790329  -2.879448  -6.099219   8.566767   0.342451  -1.879801   5.331205  -0.000217   0.000161 -12.542987  -0.003946   0.381258   0.827798   0.000012   0.000101   8.002717  -1.264189   3.550934  13.586575  -0.001248   0.001819  -9.829528   2.374753  -0.288205 -13.688242   0.000829  -0.000443
 -2.396080   0.914357   4.084467  -3.013237  -7.274265  -0.061163   7.786874  -0.545635  -1.549603   7.133894  -2.571997   2.117574  -0.688603  -1.232283   0.432250   2.148425   4.325153   9.837628  14.979960  16.175530  44.367836  -0.000148  22.212182   0.000071  14.447444   3.667867   6.055886   1.947675  -4.808049  -8.629469  15.707081 -18.144832 -44.278071   0.000107 -23.719748   0.000106   9.783017  -2.878392  -6.044747   8.707988   0.390625  -1.742349   5.469854  -0.000253   0.000145 -12.784009   0.058759   0.277564   0.811815   0.000004   0.000072   7.515783  -1.221736   3.665101  14.983765  -0.001497   0.002069 -10.101903   2.367817  -0.325599 -14.530315   0.001004  -0.000526
 -2.397078   0.913924   4.086295  -3.086929  -7.318514  -0.156043   7.963928  -0.513264  -1.551230   7.178626  -2.594015   2.166744  -0.740980  -1.265939   0.443336   2.148335   4.288521   9.791810  15.027808  16.139306  44.430141  -0.000168  22.140747   0.000062  14.390530   3.647565   6.069490   1.904346  -4.789498  -8.654771  15.703689 -18.083730 -44.279699   0.000102 -23.737930   0.000092   9.778487  -2.865071  -6.003298   8.850088   0.433377  -1.600357   5.612796  -0.000284   0.000109 -13.004572   0.116762   0.182521   0.797495  -0.000001   0.000053   7.070033  -1.174726   3.786910  16.315215  -0.001670   0.002145 -10.332193   2.371155  -0.356479 -15.404124   0.001208  -0.000596
 -2.398073   0.913442   4.088243  -3.153398  -7.366960  -0.256880   8.123962  -0.484578  -1.550464   7.220891  -2.615228   2.213747  -0.790640  -1.297480   0.453953   2.152905   4.249529   9.748897  15.076168  16.102157  44.488870  -0.000176  22.072271   0.000046  14.336790   3.619407   6.087438   1.869204  -4.767524  -8.680318  15.704280 -18.023855 -44.283726   0.000097 -23.753123   0.000080   9.775971  -2.843648  -5.972262   8.989108   0.471730  -1.454881   5.757527  -0.000308   0.000068 -13.206670   0.170494   0.095324   0.784708  -0.000004   0.000040   6.661582  -1.127375   3.915087  17.573343  -0.001772   0.002126 -10.527550   2.380384  -0.381222 -16.286355   0.001417  -0.000642
 -2.399054   0.912925   4.090300  -3.210037  -7.419474  -0.358707   8.268595  -0.458733  -1.550733   7.259350  -2.635826   2.257254  -0.837847  -1.326994   0.463971   2.160156   4.210010   9.709344  15.123655  16.065375  44.544282  -0.000175  22.007151   0.000027  14.285844   3.586323   6.107543   1.839426  -4.744357  -8.705752  15.706977 -17.966344 -44.288977   0.000091 -23.766204   0.000071   9.774900  -2.817665  -5.947792   9.123212   0.506816  -1.311101   5.901664  -0.000324   0.000025 -13.392762   0.220524   0.014874   0.773398  -0.000006   0.000031   6.286963  -1.083471   4.045163  18.757734  -0.001837   0.002003 -10.700967   2.391145  -0.401795 -17.114749   0.001568  -0.000607
 -2.399829   0.912470   4.091965  -3.227949  -7.196410  -0.425831   8.475101  -0.467219  -1.522452   7.282008  -2.733616   2.311774  -0.955996  -1.337116   0.462527   2.178239   4.153784   9.657145  15.170276  16.000975  44.600290  -0.000249  21.888363   0.000176  14.205039   3.576938   6.113819   1.728367  -4.751374  -8.848271  15.647543 -17.848113 -44.206642   0.000017 -23.671707   0.000189   9.762574  -2.913135  -5.888738   9.248385   0.502298  -1.139229   6.032389  -0.000318   0.000265 -13.735979   0.311273  -0.151740   0.733002  -0.000029  -0.000076   5.104643  -1.038878   4.136408  21.395332   0.000765   0.009355 -11.059862   2.384479  -0.495329 -17.437696   0.001365  -0.001469
 -2.400545   0.911986   4.093848  -3.318949  -6.993079  -0.483931   8.708170  -0.422331  -1.506564   7.351765  -2.799758   2.351305  -1.059195  -1.342089   0.461076   2.209725   4.093850   9.603599  15.226397  15.931157  44.652764  -0.000312  21.769414   0.000367  14.132957   3.528685   6.150425   1.631363  -4.747095  -8.989411  15.597034 -17.729899 -44.129471  -0.000060 -23.577097   0.000328   9.754992  -2.980206  -5.804996   9.462942   0.516570  -0.993834   6.159402  -0.000304   0.000450 -14.068020   0.405664  -0.316927   0.679693  -0.000058  -0.000196   3.917650  -0.968107   4.206610  24.088860   0.003663   0.015552 -11.345359   2.409932  -0.567523 -17.346787   0.001044  -0.000859
 -2.401221   0.911446   4.095993  -3.435852  -6.838078  -0.542841   8.924194  -0.344668  -1.495918   7.437165  -2.833188   2.379426  -1.151216  -1.344678   0.458627   2.247603   4.031920   9.550579  15.286105  15.860341  44.701419  -0.000341  21.654483   0.000517  14.067896   3.459723   6.205428   1.563709  -4.719224  -9.126001  15.566037 -17.605764 -44.065678  -0.000138 -23.481978   0.000461   9.750835  -3.017030  -5.739228   9.706955   0.533501  -0.866038   6.297790  -0.000292   0.000565 -14.377275   0.496671  -0.473309   0.629146  -0.000081  -0.000264   2.810530  -0.906703   4.275512  26.703172   0.005835   0.018853 -11.567630   2.430840  -0.629142 -16.833895   0.000587   0.000807
 -2.401854   0.910844   4.098372  -3.555566  -6.715293  -0.605470   9.115792  -0.252413  -1.485852   7.521324  -2.845467   2.401589  -1.237310  -1.346463   0.456055   2.287123   3.970048   9.498401  15.345683  15.790814  44.745742  -0.000338  21.545240   0.000614  14.007312   3.381818   6.265260   1.521147  -4.673312  -9.257174  15.551845 -17.477648 -44.013602  -0.000212 -23.386706   0.000577   9.749516  -3.024139  -5.699534   9.957726   0.548263  -0.747042   6.445103  -0.000280   0.000623 -14.663238   0.582459  -0.619305   0.582962  -0.000096  -0.000294   1.786957  -0.857155   4.349431  29.178745   0.007284   0.020082 -11.738904   2.446889  -0.682251 -15.971300   0.000134   0.002776
 -2.402430   0.910180   4.100955  -3.668297  -6.613810  -0.673830   9.284001  -0.153345  -1.473017   7.598364  -2.843810   2.421076  -1.319155  -1.347929   0.453820   2.325305   3.910321   9.446808  15.402942  15.724083  44.785203  -0.000314  21.442412   0.000668  13.950017   3.301366   6.322610   1.496499  -4.616329  -9.382412  15.549372 -17.349166 -43.970695  -0.000275 -23.292884   0.000669   9.750323  -3.007905  -5.681627  10.206653   0.560616  -0.631950   6.597668  -0.000266   0.000642 -14.927674   0.662963  -0.755060   0.541056  -0.000105  -0.000299   0.840233  -0.820705   4.420200  31.501838   0.008304   0.019852 -11.870707   2.450729  -0.731080 -14.858138  -0.000064   0.004502
 -2.402936   0.909449   4.103716  -3.771000  -6.525501  -0.751338   9.433285  -0.051997  -1.454187   7.667058  -2.832820   2.440709  -1.397071  -1.349214   0.452242   2.360132   3.854508   9.395417  15.456451  15.661234  44.819509  -0.000276  21.346338   0.000690  13.895352   3.222301   6.373914   1.483376  -4.554021  -9.501103  15.554053 -17.223471 -43.934655  -0.000323 -23.202112   0.000733   9.752533  -2.976331  -5.678938  10.451482   0.570587  -0.515726   6.752684  -0.000248   0.000635 -15.172781   0.738329  -0.880960   0.503059  -0.000110  -0.000291  -0.043467  -0.795183   4.473777  33.661028   0.009240   0.018580 -11.975448   2.437354  -0.779425 -13.611235   0.000276   0.005665
 -2.403315   0.908781   4.106371  -3.786964  -6.220495  -0.819988   9.600180   0.006205  -1.370603   7.666193  -2.916601   2.447773  -1.571797  -1.356920   0.436916   2.429934   3.819484   9.321814  15.456165  15.598410  44.872197  -0.000247  21.264522   0.000748  13.810802   3.113510   6.444025   1.427495  -4.441174  -9.742702  15.500052 -17.020453 -43.839743  -0.000504 -22.948179   0.001649   9.743398  -3.076608  -5.608159  10.716888   0.437210  -0.350250   6.767980  -0.000202   0.000529 -15.624599   0.868441  -1.104987   0.467807  -0.000137  -0.000316  -1.254293  -0.855645   4.525545  35.991366   0.011965   0.020261 -12.350686   2.432518  -0.852198 -12.530040   0.001127   0.007861
 -2.403607   0.908115   4.109110  -3.813315  -5.888941  -0.870312   9.789632   0.092300  -1.299257   7.676394  -2.978900   2.443371  -1.740706  -1.364272   0.423056   2.489569   3.794740   9.247801  15.451998  15.543483  44.919668  -0.000215  21.189982   0.000835  13.728430   3.011585   6.516622   1.382109  -4.329064  -9.977697  15.454469 -16.823154 -43.752318  -0.000728 -22.702277   0.002427   9.740534  -3.126844  -5.515328  11.022997   0.317516  -0.201709   6.743668  -0.000158   0.000380 -16.068961   0.995840  -1.318866   0.413449  -0.000180  -0.000401  -2.501365  -0.906849   4.540753  38.164653   0.014694   0.021520 -12.703873   2.428992  -0.920471 -11.563257   0.002059   0.009544
 -2.403837   0.907407   4.111979  -3.858387  -5.552378  -0.912498   9.991083   0.200642  -1.238657   7.703841  -3.013291   2.430654  -1.895465  -1.370235   0.409379   2.538462   3.779376   9.173838  15.443605  15.496253  44.960529  -0.000179  21.122491   0.000917  13.649470   2.920790   6.584007   1.351736  -4.213706 -10.198110  15.420120 -16.631844 -43.674774  -0.000953 -22.468734   0.003038   9.740147  -3.151812  -5.435303  11.356299   0.207829  -0.064870   6.719241  -0.000125   0.000258 -16.490173   1.117679  -1.519457   0.360030  -0.000206  -0.000470  -3.744162  -0.953280   4.531375  40.168782   0.016915   0.021950 -13.034845   2.426026  -0.984417 -10.680318   0.002957   0.010619
 -2.404019   0.906633   4.115008  -3.923153  -5.216354  -0.952840  10.197504   0.325782  -1.186053   7.745558  -3.023226   2.412687  -2.036819  -1.375122   0.395982   2.578108   3.771362   9.100824  15.431816  15.455483  44.995170  -0.000138  21.061293   0.000981  13.573690   2.840360   6.643155   1.336608  -4.094074 -10.404059  15.397420 -16.445076 -43.605959  -0.001158 -22.246428   0.003507   9.741471  -3.155659  -5.373687  11.711816   0.105704   0.066152   6.707902  -0.000099   0.000185 -16.884798   1.233311  -1.706679   0.309980  -0.000218  -0.000517  -4.966848  -0.997012   4.507068  42.016151   0.018522   0.021696 -13.344923   2.423493  -1.044206  -9.872888   0.003736   0.011165
